<svg width="62" height="73" viewBox="0 0 62 73" fill="none" xmlns="http://www.w3.org/2000/svg">
<path d="M13.7788 0C6.16831 0 0 7.14941 0 15.9687C0 23.5196 4.52404 29.8478 10.6005 31.5085L8.3178 68.4464C8.2752 69.0324 8.35546 69.6209 8.55352 70.1746C8.75158 70.7283 9.06312 71.2351 9.46846 71.663C9.8738 72.091 10.3641 72.4307 10.9084 72.6608C11.4527 72.8909 12.0391 73.0063 12.6306 72.9997H14.927C17.4531 72.9997 19.3914 70.9512 19.2398 68.4464L16.9571 31.5085C23.0336 29.8432 27.5576 23.5196 27.5576 15.9687C27.5576 7.14941 21.3893 0 13.7788 0ZM60.0893 0L56.2634 22.8124H53.3928L51.4776 0H49.5623L47.6471 22.8124H44.7765L40.9506 0H39.0353V29.6561C39.0353 30.2612 39.2773 30.8414 39.708 31.2692C40.1386 31.697 40.7227 31.9374 41.3318 31.9374H47.3118L45.0567 68.4464C45.0141 69.0324 45.0943 69.6209 45.2924 70.1746C45.4904 70.7283 45.802 71.2351 46.2073 71.663C46.6127 72.091 47.103 72.4307 47.6473 72.6608C48.1915 72.8909 48.778 73.0063 49.3694 72.9997H51.6659C54.192 72.9997 56.1302 70.9512 55.9787 68.4464L53.7235 31.9374H59.7035C60.3126 31.9374 60.8967 31.697 61.3274 31.2692C61.7581 30.8414 62 30.2612 62 29.6561V0H60.0848H60.0893Z" fill="#645E46"/>
</svg>
